<svg width="58" height="78" viewBox="0 0 58 78" fill="none" xmlns="http://www.w3.org/2000/svg">
<path d="M26.0196 75.7804C4.07359 44.1023 0 40.8512 0 29.209C0 13.2617 12.9837 0.333984 29 0.333984C45.0163 0.333984 58 13.2617 58 29.209C58 40.8512 53.9264 44.1023 31.9804 75.7804C30.5402 77.8519 27.4597 77.8518 26.0196 75.7804Z" fill="#274C69"/>
<g clip-path="url(#clip0_2865_116458)">
<path d="M10.9528 22.8936L15.8579 36.5641L20.1971 29.4479L10.9528 22.8936Z" fill="white"/>
<path d="M15.4801 35.6238L16.9894 39.5564C20.9513 39.3691 24.7245 39.3691 28.875 39.3691C33.0255 39.3691 37.176 39.5564 41.1379 39.7437L42.4585 35.8111C38.1193 35.6238 33.5915 35.4365 28.875 35.4365C24.1585 35.4365 19.8193 35.4365 15.4801 35.6238Z" fill="white"/>
<path d="M46.9898 22.8936L42.0846 36.7513L37.5568 29.4479L46.9898 22.8936Z" fill="white"/>
<path d="M28.8406 22.8493L26.0439 25.6348L28.8501 28.4108L31.6468 25.6253L28.8406 22.8493Z" fill="white"/>
<path d="M24.9525 26.8377L22.2867 29.4883L25.0906 32.2667L27.7563 29.6161L24.9525 26.8377Z" fill="white"/>
<path d="M32.8325 26.7645L30.1667 29.415L32.9706 32.1934L35.6363 29.5428L32.8325 26.7645Z" fill="white"/>
</g>
<defs>
<clipPath id="clip0_2865_116458">
<rect width="35.8455" height="16.8541" fill="white" transform="translate(10.9528 22.1455)"/>
</clipPath>
</defs>
</svg>
